# xmcd
#
# Track frame offsets:
#	150
#	19960
#	41305
#	65255
#	77522
#	90857
#	102305
#	117440
#	131397
#	141007
#	153917
#	168950
#	182812
#	197500
#	215782
#	231530
#	250710
#	268570
#	285050
#	303202
#
# Disc length: 4233
#
# Revision: 3
# Processed by: cddbd v1.5.1PL0 Copyright (c) Steve Scherf et al.
# Submitted via: OrangeCD 5.2
# Normalized: r2:DSETVAR1
#
DISCID=01108714
DTITLE=Various Artist - Toe The Line 4 [CD1]
DYEAR=1999
DGENRE=Country
TTITLE0=The Mavericks - Dance The Night Away
TTITLE1=Tracy Byrd - I'm From the Country (Dance Mix)
TTITLE2=Big House - Walkin' On Me (He Man Mix)
TTITLE3=Danni Leigh - If the Jukebox Took Teardrops
TTITLE4=Trisha Yearwood - Perfect Love
TTITLE5=Patty Loveless - Timber, I'm Falling In Love
TTITLE6=Matraca Berg - Back In The Saddle
TTITLE7=The Mavericks - She Does
TTITLE8=Vince Gill - I'll Take Texas
TTITLE9=Jimmy Buffet - Pencil Thin Moustache
TTITLE10=David Lee Murphy - Party Crowd
TTITLE11=Lee Ann Womack - I'll Think Of A Reason Later
TTITLE12=Reba McEntire - Walk On
TTITLE13=Scooter Lee - Ribbon Of Highway
TTITLE14=Shane Stockton - I Didn't Know
TTITLE15=The Mavericks - Call me The Breeze
TTITLE16=Sporran Brothers - (Swing Swing) Highland Fling
TTITLE17=Delbert McClinton - Leap Of Faith
TTITLE18=The Commitments - Mustang Sally
TTITLE19=Frankie Goes To Hollywood - On The Inside
EXTD=
EXTT0=
EXTT1=
EXTT2=
EXTT3=
EXTT4=
EXTT5=
EXTT6=
EXTT7=
EXTT8=
EXTT9=
EXTT10=
EXTT11=
EXTT12=
EXTT13=
EXTT14=
EXTT15=
EXTT16=
EXTT17=
EXTT18=
EXTT19=
PLAYORDER=
